<?xml version="1.0" encoding="iso-8859-1"?>
<!-- Generator: Adobe Illustrator 19.0.0, SVG Export Plug-In . SVG Version: 6.00 Build 0)  -->
<svg version="1.1" id="Capa_1" xmlns="http://www.w3.org/2000/svg" xmlns:xlink="http://www.w3.org/1999/xlink" x="0px" y="0px"
	 viewBox="0 0 464 464" style="enable-background:new 0 0 464 464;" xml:space="preserve">
<path style="fill:#576177;" d="M464,280H0V16C0,7.2,7.2,0,16,0h432c8.8,0,16,7.2,16,16V280z"/>
<g>
	<path style="fill:#E6E6E6;" d="M464,280H0v48c0,8.8,7.2,16,16,16h432c8.8,0,16-7.2,16-16V280z"/>
	<path style="fill:#E6E6E6;" d="M356.4,440.8L356.4,440.8c-2.7-5.4-8.3-8.8-14.3-8.8H304l-16-88H176l-16,88h-38.1
		c-6.1,0-11.6,3.4-14.3,8.8l0,0c-5.3,10.6,2.4,23.2,14.3,23.2h220.2C354,464,361.7,451.5,356.4,440.8z"/>
</g>
<rect x="208" y="304" style="fill:#FFFFFF;" width="48" height="16"/>
<polygon style="fill:#D6D6D6;" points="288,344 176,344 173.1,360 290.9,360 "/>
<rect x="136" y="48" style="fill:#FCB641;" width="192" height="232"/>
<g>
	<polygon style="fill:#E65039;" points="186.3,133.7 156.7,104 186.3,74.3 197.7,85.7 179.3,104 197.7,122.3 	"/>
	<polygon style="fill:#E65039;" points="277.7,133.7 266.3,122.3 284.7,104 266.3,85.7 277.7,74.3 307.3,104 	"/>
	
		<rect x="206.721" y="96.013" transform="matrix(0.3164 -0.9486 0.9486 0.3164 59.939 291.2024)" style="fill:#E65039;" width="50.599" height="16"/>
	<rect x="160" y="160" style="fill:#E65039;" width="72" height="16"/>
	<rect x="256" y="160" style="fill:#E65039;" width="48" height="16"/>
	<rect x="160" y="232" style="fill:#E65039;" width="80" height="16"/>
	<rect x="256" y="232" style="fill:#E65039;" width="48" height="16"/>
	<rect x="160" y="200" style="fill:#E65039;" width="144" height="16"/>
</g>
<g>
	<rect x="32" y="56" style="fill:#FFFFFF;" width="16" height="48"/>
	<rect x="32" y="120" style="fill:#FFFFFF;" width="16" height="32"/>
	<rect x="88" y="32" style="fill:#FFFFFF;" width="16" height="48"/>
	<rect x="88" y="96" style="fill:#FFFFFF;" width="16" height="32"/>
	<rect x="64" y="152" style="fill:#FFFFFF;" width="16" height="48"/>
	<rect x="64" y="216" style="fill:#FFFFFF;" width="16" height="32"/>
	<rect x="368" y="64" style="fill:#FFFFFF;" width="16" height="48"/>
	<rect x="368" y="128" style="fill:#FFFFFF;" width="16" height="32"/>
	<rect x="416" y="32" style="fill:#FFFFFF;" width="16" height="48"/>
	<rect x="416" y="96" style="fill:#FFFFFF;" width="16" height="32"/>
</g>
<g>
</g>
<g>
</g>
<g>
</g>
<g>
</g>
<g>
</g>
<g>
</g>
<g>
</g>
<g>
</g>
<g>
</g>
<g>
</g>
<g>
</g>
<g>
</g>
<g>
</g>
<g>
</g>
<g>
</g>
</svg>
